<svg width="304" height="270" viewBox="0 0 304 270" fill="none" xmlns="http://www.w3.org/2000/svg">
<ellipse cx="53.1891" cy="54.8152" rx="53.1891" ry="54.8152" fill="#B1B4C5"/>
<ellipse cx="53.1891" cy="52.385" rx="53.1891" ry="52.385" fill="url(#paint0_linear_86148_525)"/>
<ellipse cx="53.189" cy="53.4651" rx="40.8321" ry="41.0439" fill="#E1E4ED"/>
<path d="M69.0533 42.8386C68.7524 42.7225 68.4392 42.6722 68.15 42.6925C67.7322 42.7219 67.3948 42.8931 67.1949 43.1735C66.0175 44.8387 65.0532 47.9836 64.2756 50.5105C63.9187 51.6791 63.4396 53.2429 63.0927 53.9851C62.7308 51.9057 63.1395 44.2885 63.2981 41.3551L63.3007 41.3077C63.4106 39.2697 63.4254 38.9123 63.4013 38.7554C63.2266 37.6374 62.7829 36.9036 62.0819 36.5751C61.3732 36.242 60.4528 36.3894 59.4614 36.9918C58.9643 37.2953 58.8268 38.3371 58.4001 43.0591L58.3986 43.0799C58.1636 45.674 57.6229 51.6473 56.9574 52.642C56.2066 51.2503 55.1736 43.3427 54.7278 39.9199C54.4157 37.5227 54.234 36.1463 54.1119 35.7307C53.8547 34.8598 52.7689 34.1187 51.6939 34.0776C50.799 34.0328 50.0648 34.4924 49.7144 35.2909C49.0588 36.0275 49.2904 38.4702 50.015 44.2555C50.36 47.0089 51.0719 52.6963 50.6239 53.3343C49.7305 53.2362 48.1967 49.6737 46.0647 42.7427C45.4665 40.8016 45.2814 40.2178 45.0976 39.9623C44.7355 39.0721 43.5046 38.3856 42.4011 38.4631C42.3068 38.4698 42.2152 38.4821 42.1247 38.4995C41.547 38.6154 40.2288 39.1522 40.5098 41.6297C41.2882 45.0645 42.1337 47.5865 42.9543 50.0342L42.9709 50.0833C43.4619 51.5494 43.926 52.9347 44.3573 54.4721C45.3738 58.1019 44.9785 60.354 44.9737 60.3794C44.9399 60.6112 44.869 60.7527 44.7624 60.8022C44.724 60.8204 44.6749 60.8312 44.6194 60.8351C44.2973 60.8578 43.8141 60.6424 43.565 60.502C42.9962 59.4044 40.164 54.1729 37.5976 53.4473L37.5054 53.4198L37.4121 53.4286C36.4709 53.5183 35.7788 53.8776 35.3558 54.496C34.6855 55.4742 34.963 56.7199 35.0303 56.9697L35.0681 57.0593C35.0891 57.0969 37.1471 60.8851 37.4657 62.6474C37.7403 64.1582 39.1614 65.7956 40.3039 67.1112L40.351 67.1647C40.7237 67.5952 41.0453 67.9672 41.299 68.3116C44.6141 71.8027 49.8569 74.7393 49.8996 74.7629C50.5538 75.2503 50.9175 75.7212 50.9559 76.1266C50.9802 76.392 50.8437 76.5506 50.839 76.556L50.7248 76.6762L51.4495 77.3874L65.2813 76.4063L65.871 73.678C67.6945 65.9723 67.3138 59.4022 67.3078 59.3584C67.3145 59.1167 67.8256 56.779 68.2366 54.8902L68.2487 54.8422C69.068 51.0796 70.0869 46.3978 70.2823 44.6172C70.3673 43.8558 69.8849 43.1564 69.0533 42.8386Z" fill="#8A90AC"/>
<ellipse cx="249.686" cy="54.8152" rx="53.6862" ry="54.8152" fill="#B1B4C5"/>
<ellipse cx="249.686" cy="52.385" rx="53.6862" ry="52.385" fill="url(#paint1_linear_86148_525)"/>
<ellipse cx="249.686" cy="53.4651" rx="41.2137" ry="41.0439" fill="#E1E4ED"/>
<path d="M238.927 53.1137L243.379 46.8798C241.529 46.5727 238.131 46.5046 235.347 49.2765C230.96 53.6459 229.183 63.0849 228.813 65.3697L239.963 76.4747C241.971 76.3035 250.859 75.1218 259.422 66.5932C259.513 66.409 261.599 64.8739 259.894 63.1754C259.08 62.3647 257.732 62.3798 256.901 63.2081C256.477 63.6298 255.819 63.636 255.404 63.223C254.989 62.8101 254.996 62.1542 255.419 61.7325L258.445 58.7189C259.983 57.1873 258.533 54.6036 256.387 55.2243L253.909 57.3365C253.457 57.7293 252.785 57.6612 252.413 57.2332C252.028 56.7901 252.111 56.1191 252.548 55.7415C261.202 48.1798 259.939 49.0905 265.506 43.8933C267.587 42.1684 264.97 39.1174 262.92 40.8643L249.451 52.9264C249.059 53.2588 248.458 53.265 248.073 52.9113C247.628 52.5286 247.618 51.9772 247.909 51.5416L257.303 36.9963C258.677 35.1442 255.974 33.0871 254.528 34.9543L240.637 54.302C240.302 54.7843 239.626 54.895 239.166 54.5577C238.705 54.2492 238.579 53.5794 238.927 53.1137Z" fill="#8A90AC"/>
<ellipse cx="151.686" cy="214.815" rx="53.6862" ry="54.8152" fill="#B1B4C5"/>
<ellipse cx="151.686" cy="212.385" rx="53.6862" ry="52.385" fill="url(#paint2_linear_86148_525)"/>
<ellipse cx="151.686" cy="213.465" rx="41.2137" ry="41.0439" fill="#E1E4ED"/>
<path d="M167.652 207.57C167.177 201.574 160.444 202.186 160.444 202.186C157.602 197.175 153.163 200.805 153.163 200.805C149.752 195.894 145.476 200.444 145.476 200.444C138.104 199.649 138.389 205.679 138.389 205.679C138.216 207.596 139.428 213.526 139.428 213.526C138.335 210.108 135.962 212.945 135.962 212.945C133.046 217.447 135.241 219.911 135.241 219.911C139.188 224.538 147.598 230.091 147.598 230.091C150.644 231.837 149.355 233.393 149.355 233.393L167.776 230.348L168.199 226.854C170.999 218.382 167.652 207.57 167.652 207.57Z" fill="#8A90AC"/>
<path d="M143.617 27.478C143.617 28.3013 143.348 28.9297 142.811 29.363C142.282 29.7877 141.598 30 140.757 30H137.845C137.802 30 137.763 29.987 137.728 29.961C137.702 29.9263 137.689 29.8873 137.689 29.844V21.056C137.689 21.0127 137.702 20.978 137.728 20.952C137.763 20.9173 137.802 20.9 137.845 20.9H140.562C141.489 20.9 142.209 21.108 142.72 21.524C143.231 21.9313 143.487 22.5553 143.487 23.396C143.487 24.254 143.153 24.8737 142.486 25.255C142.443 25.281 142.438 25.307 142.473 25.333C143.236 25.7663 143.617 26.4813 143.617 27.478ZM139.587 22.473C139.544 22.473 139.522 22.4947 139.522 22.538V24.579C139.522 24.6223 139.544 24.644 139.587 24.644H140.575C140.922 24.644 141.195 24.5487 141.394 24.358C141.593 24.1673 141.693 23.903 141.693 23.565C141.693 23.2183 141.593 22.9497 141.394 22.759C141.203 22.5683 140.93 22.473 140.575 22.473H139.587ZM140.679 28.414C141.026 28.414 141.294 28.3143 141.485 28.115C141.684 27.907 141.784 27.6167 141.784 27.244C141.784 26.8713 141.684 26.581 141.485 26.373C141.294 26.1563 141.026 26.048 140.679 26.048H139.587C139.544 26.048 139.522 26.0697 139.522 26.113V28.349C139.522 28.3923 139.544 28.414 139.587 28.414H140.679ZM150.298 22.317C150.298 22.3603 150.281 22.3993 150.246 22.434C150.22 22.46 150.186 22.473 150.142 22.473H146.658C146.615 22.473 146.593 22.4947 146.593 22.538V24.566C146.593 24.6093 146.615 24.631 146.658 24.631H148.829C148.873 24.631 148.907 24.6483 148.933 24.683C148.968 24.709 148.985 24.7437 148.985 24.787V26.048C148.985 26.0913 148.968 26.1303 148.933 26.165C148.907 26.191 148.873 26.204 148.829 26.204H146.658C146.615 26.204 146.593 26.2257 146.593 26.269V28.362C146.593 28.4053 146.615 28.427 146.658 28.427H150.142C150.186 28.427 150.22 28.4443 150.246 28.479C150.281 28.505 150.298 28.5397 150.298 28.583V29.844C150.298 29.8873 150.281 29.9263 150.246 29.961C150.22 29.987 150.186 30 150.142 30H144.916C144.873 30 144.834 29.987 144.799 29.961C144.773 29.9263 144.76 29.8873 144.76 29.844V21.056C144.76 21.0127 144.773 20.978 144.799 20.952C144.834 20.9173 144.873 20.9 144.916 20.9H150.142C150.186 20.9 150.22 20.9173 150.246 20.952C150.281 20.978 150.298 21.0127 150.298 21.056V22.317ZM156.312 30C156.216 30 156.156 29.9567 156.13 29.87L155.831 28.596C155.822 28.5613 155.8 28.544 155.766 28.544H153.335C153.3 28.544 153.278 28.5613 153.27 28.596L152.971 29.87C152.945 29.9567 152.888 30 152.802 30H151.229C151.116 30 151.073 29.9437 151.099 29.831L153.439 21.03C153.465 20.9433 153.525 20.9 153.621 20.9H155.506C155.601 20.9 155.662 20.9433 155.688 21.03L158.028 29.831L158.041 29.883C158.041 29.961 157.993 30 157.898 30H156.312ZM153.621 27.049C153.612 27.075 153.616 27.0967 153.634 27.114C153.651 27.1227 153.668 27.127 153.686 27.127H155.402C155.419 27.127 155.436 27.1227 155.454 27.114C155.471 27.0967 155.475 27.075 155.467 27.049L154.57 23.279C154.561 23.2443 154.548 23.227 154.531 23.227C154.513 23.227 154.5 23.2443 154.492 23.279L153.621 27.049ZM163.707 20.9C163.751 20.9 163.785 20.9173 163.811 20.952C163.846 20.978 163.863 21.0127 163.863 21.056V22.33C163.863 22.3733 163.846 22.4123 163.811 22.447C163.785 22.473 163.751 22.486 163.707 22.486H161.731C161.688 22.486 161.666 22.5077 161.666 22.551V29.844C161.666 29.8873 161.649 29.9263 161.614 29.961C161.588 29.987 161.554 30 161.51 30H159.989C159.946 30 159.907 29.987 159.872 29.961C159.846 29.9263 159.833 29.8873 159.833 29.844V22.551C159.833 22.5077 159.812 22.486 159.768 22.486H157.857C157.814 22.486 157.775 22.473 157.74 22.447C157.714 22.4123 157.701 22.3733 157.701 22.33V21.056C157.701 21.0127 157.714 20.978 157.74 20.952C157.775 20.9173 157.814 20.9 157.857 20.9H163.707ZM167.587 30.104C166.989 30.104 166.465 30 166.014 29.792C165.563 29.5753 165.212 29.2763 164.961 28.895C164.718 28.505 164.597 28.0587 164.597 27.556V27.218C164.597 27.1747 164.61 27.14 164.636 27.114C164.671 27.0793 164.71 27.062 164.753 27.062H166.248C166.291 27.062 166.326 27.0793 166.352 27.114C166.387 27.14 166.404 27.1747 166.404 27.218V27.465C166.404 27.7683 166.517 28.024 166.742 28.232C166.967 28.4313 167.271 28.531 167.652 28.531C167.99 28.531 168.246 28.4443 168.419 28.271C168.601 28.0977 168.692 27.8767 168.692 27.608C168.692 27.4087 168.636 27.2397 168.523 27.101C168.41 26.9537 168.25 26.8193 168.042 26.698C167.843 26.568 167.531 26.3947 167.106 26.178C166.586 25.918 166.161 25.6753 165.832 25.45C165.503 25.2247 165.221 24.9343 164.987 24.579C164.753 24.2237 164.636 23.7947 164.636 23.292C164.636 22.7893 164.753 22.3517 164.987 21.979C165.23 21.5977 165.568 21.3073 166.001 21.108C166.434 20.9 166.928 20.796 167.483 20.796C168.064 20.796 168.579 20.9087 169.03 21.134C169.481 21.3507 169.832 21.6583 170.083 22.057C170.334 22.4557 170.46 22.915 170.46 23.435V23.695C170.46 23.7383 170.443 23.7773 170.408 23.812C170.382 23.838 170.347 23.851 170.304 23.851H168.809C168.766 23.851 168.727 23.838 168.692 23.812C168.666 23.7773 168.653 23.7383 168.653 23.695V23.461C168.653 23.149 168.545 22.889 168.328 22.681C168.111 22.473 167.817 22.369 167.444 22.369C167.132 22.369 166.885 22.4513 166.703 22.616C166.53 22.772 166.443 22.993 166.443 23.279C166.443 23.4783 166.495 23.6517 166.599 23.799C166.703 23.9463 166.863 24.0893 167.08 24.228C167.297 24.358 167.626 24.5313 168.068 24.748L168.341 24.904C168.844 25.1813 169.234 25.424 169.511 25.632C169.797 25.8313 170.035 26.087 170.226 26.399C170.417 26.711 170.512 27.088 170.512 27.53C170.512 28.3187 170.243 28.947 169.706 29.415C169.177 29.8743 168.471 30.104 167.587 30.104Z" fill="#B1B4C5"/>
<path d="M45.617 145.478C45.617 146.301 45.3483 146.93 44.811 147.363C44.2823 147.788 43.5977 148 42.757 148H39.845C39.8017 148 39.7627 147.987 39.728 147.961C39.702 147.926 39.689 147.887 39.689 147.844V139.056C39.689 139.013 39.702 138.978 39.728 138.952C39.7627 138.917 39.8017 138.9 39.845 138.9H42.562C43.4893 138.9 44.2087 139.108 44.72 139.524C45.2313 139.931 45.487 140.555 45.487 141.396C45.487 142.254 45.1533 142.874 44.486 143.255C44.4427 143.281 44.4383 143.307 44.473 143.333C45.2357 143.766 45.617 144.481 45.617 145.478ZM41.587 140.473C41.5437 140.473 41.522 140.495 41.522 140.538V142.579C41.522 142.622 41.5437 142.644 41.587 142.644H42.575C42.9217 142.644 43.1947 142.549 43.394 142.358C43.5933 142.167 43.693 141.903 43.693 141.565C43.693 141.218 43.5933 140.95 43.394 140.759C43.2033 140.568 42.9303 140.473 42.575 140.473H41.587ZM42.679 146.414C43.0257 146.414 43.2943 146.314 43.485 146.115C43.6843 145.907 43.784 145.617 43.784 145.244C43.784 144.871 43.6843 144.581 43.485 144.373C43.2943 144.156 43.0257 144.048 42.679 144.048H41.587C41.5437 144.048 41.522 144.07 41.522 144.113V146.349C41.522 146.392 41.5437 146.414 41.587 146.414H42.679ZM52.2983 140.317C52.2983 140.36 52.281 140.399 52.2463 140.434C52.2203 140.46 52.1856 140.473 52.1423 140.473H48.6583C48.615 140.473 48.5933 140.495 48.5933 140.538V142.566C48.5933 142.609 48.615 142.631 48.6583 142.631H50.8293C50.8726 142.631 50.9073 142.648 50.9333 142.683C50.968 142.709 50.9853 142.744 50.9853 142.787V144.048C50.9853 144.091 50.968 144.13 50.9333 144.165C50.9073 144.191 50.8726 144.204 50.8293 144.204H48.6583C48.615 144.204 48.5933 144.226 48.5933 144.269V146.362C48.5933 146.405 48.615 146.427 48.6583 146.427H52.1423C52.1856 146.427 52.2203 146.444 52.2463 146.479C52.281 146.505 52.2983 146.54 52.2983 146.583V147.844C52.2983 147.887 52.281 147.926 52.2463 147.961C52.2203 147.987 52.1856 148 52.1423 148H46.9163C46.873 148 46.834 147.987 46.7993 147.961C46.7733 147.926 46.7603 147.887 46.7603 147.844V139.056C46.7603 139.013 46.7733 138.978 46.7993 138.952C46.834 138.917 46.873 138.9 46.9163 138.9H52.1423C52.1856 138.9 52.2203 138.917 52.2463 138.952C52.281 138.978 52.2983 139.013 52.2983 139.056V140.317ZM58.3115 148C58.2162 148 58.1555 147.957 58.1295 147.87L57.8305 146.596C57.8218 146.561 57.8002 146.544 57.7655 146.544H55.3345C55.2998 146.544 55.2782 146.561 55.2695 146.596L54.9705 147.87C54.9445 147.957 54.8882 148 54.8015 148H53.2285C53.1158 148 53.0725 147.944 53.0985 147.831L55.4385 139.03C55.4645 138.943 55.5252 138.9 55.6205 138.9H57.5055C57.6008 138.9 57.6615 138.943 57.6875 139.03L60.0275 147.831L60.0405 147.883C60.0405 147.961 59.9928 148 59.8975 148H58.3115ZM55.6205 145.049C55.6118 145.075 55.6162 145.097 55.6335 145.114C55.6508 145.123 55.6682 145.127 55.6855 145.127H57.4015C57.4188 145.127 57.4362 145.123 57.4535 145.114C57.4708 145.097 57.4752 145.075 57.4665 145.049L56.5695 141.279C56.5608 141.244 56.5478 141.227 56.5305 141.227C56.5132 141.227 56.5002 141.244 56.4915 141.279L55.6205 145.049ZM65.7073 138.9C65.7506 138.9 65.7853 138.917 65.8113 138.952C65.8459 138.978 65.8633 139.013 65.8633 139.056V140.33C65.8633 140.373 65.8459 140.412 65.8113 140.447C65.7853 140.473 65.7506 140.486 65.7073 140.486H63.7313C63.6879 140.486 63.6663 140.508 63.6663 140.551V147.844C63.6663 147.887 63.6489 147.926 63.6143 147.961C63.5883 147.987 63.5536 148 63.5103 148H61.9893C61.9459 148 61.9069 147.987 61.8723 147.961C61.8463 147.926 61.8333 147.887 61.8333 147.844V140.551C61.8333 140.508 61.8116 140.486 61.7683 140.486H59.8573C59.8139 140.486 59.7749 140.473 59.7403 140.447C59.7143 140.412 59.7013 140.373 59.7013 140.33V139.056C59.7013 139.013 59.7143 138.978 59.7403 138.952C59.7749 138.917 59.8139 138.9 59.8573 138.9H65.7073ZM69.587 148.104C68.989 148.104 68.4646 148 68.014 147.792C67.5633 147.575 67.2123 147.276 66.961 146.895C66.7183 146.505 66.597 146.059 66.597 145.556V145.218C66.597 145.175 66.61 145.14 66.636 145.114C66.6706 145.079 66.7096 145.062 66.753 145.062H68.248C68.2913 145.062 68.326 145.079 68.352 145.114C68.3866 145.14 68.404 145.175 68.404 145.218V145.465C68.404 145.768 68.5166 146.024 68.742 146.232C68.9673 146.431 69.2706 146.531 69.652 146.531C69.99 146.531 70.2456 146.444 70.419 146.271C70.601 146.098 70.692 145.877 70.692 145.608C70.692 145.409 70.6356 145.24 70.523 145.101C70.4103 144.954 70.25 144.819 70.042 144.698C69.8426 144.568 69.5306 144.395 69.106 144.178C68.586 143.918 68.1613 143.675 67.832 143.45C67.5026 143.225 67.221 142.934 66.987 142.579C66.753 142.224 66.636 141.795 66.636 141.292C66.636 140.789 66.753 140.352 66.987 139.979C67.2296 139.598 67.5676 139.307 68.001 139.108C68.4343 138.9 68.9283 138.796 69.483 138.796C70.0636 138.796 70.5793 138.909 71.03 139.134C71.4806 139.351 71.8316 139.658 72.083 140.057C72.3343 140.456 72.46 140.915 72.46 141.435V141.695C72.46 141.738 72.4426 141.777 72.408 141.812C72.382 141.838 72.3473 141.851 72.304 141.851H70.809C70.7656 141.851 70.7266 141.838 70.692 141.812C70.666 141.777 70.653 141.738 70.653 141.695V141.461C70.653 141.149 70.5446 140.889 70.328 140.681C70.1113 140.473 69.8166 140.369 69.444 140.369C69.132 140.369 68.885 140.451 68.703 140.616C68.5296 140.772 68.443 140.993 68.443 141.279C68.443 141.478 68.495 141.652 68.599 141.799C68.703 141.946 68.8633 142.089 69.08 142.228C69.2966 142.358 69.626 142.531 70.068 142.748L70.341 142.904C70.8436 143.181 71.2336 143.424 71.511 143.632C71.797 143.831 72.0353 144.087 72.226 144.399C72.4166 144.711 72.512 145.088 72.512 145.53C72.512 146.319 72.2433 146.947 71.706 147.415C71.1773 147.874 70.471 148.104 69.587 148.104Z" fill="#B1B4C5"/>
<path d="M240.617 145.478C240.617 146.301 240.348 146.93 239.811 147.363C239.282 147.788 238.598 148 237.757 148H234.845C234.802 148 234.763 147.987 234.728 147.961C234.702 147.926 234.689 147.887 234.689 147.844V139.056C234.689 139.013 234.702 138.978 234.728 138.952C234.763 138.917 234.802 138.9 234.845 138.9H237.562C238.489 138.9 239.209 139.108 239.72 139.524C240.231 139.931 240.487 140.555 240.487 141.396C240.487 142.254 240.153 142.874 239.486 143.255C239.443 143.281 239.438 143.307 239.473 143.333C240.236 143.766 240.617 144.481 240.617 145.478ZM236.587 140.473C236.544 140.473 236.522 140.495 236.522 140.538V142.579C236.522 142.622 236.544 142.644 236.587 142.644H237.575C237.922 142.644 238.195 142.549 238.394 142.358C238.593 142.167 238.693 141.903 238.693 141.565C238.693 141.218 238.593 140.95 238.394 140.759C238.203 140.568 237.93 140.473 237.575 140.473H236.587ZM237.679 146.414C238.026 146.414 238.294 146.314 238.485 146.115C238.684 145.907 238.784 145.617 238.784 145.244C238.784 144.871 238.684 144.581 238.485 144.373C238.294 144.156 238.026 144.048 237.679 144.048H236.587C236.544 144.048 236.522 144.07 236.522 144.113V146.349C236.522 146.392 236.544 146.414 236.587 146.414H237.679ZM247.298 140.317C247.298 140.36 247.281 140.399 247.246 140.434C247.22 140.46 247.186 140.473 247.142 140.473H243.658C243.615 140.473 243.593 140.495 243.593 140.538V142.566C243.593 142.609 243.615 142.631 243.658 142.631H245.829C245.873 142.631 245.907 142.648 245.933 142.683C245.968 142.709 245.985 142.744 245.985 142.787V144.048C245.985 144.091 245.968 144.13 245.933 144.165C245.907 144.191 245.873 144.204 245.829 144.204H243.658C243.615 144.204 243.593 144.226 243.593 144.269V146.362C243.593 146.405 243.615 146.427 243.658 146.427H247.142C247.186 146.427 247.22 146.444 247.246 146.479C247.281 146.505 247.298 146.54 247.298 146.583V147.844C247.298 147.887 247.281 147.926 247.246 147.961C247.22 147.987 247.186 148 247.142 148H241.916C241.873 148 241.834 147.987 241.799 147.961C241.773 147.926 241.76 147.887 241.76 147.844V139.056C241.76 139.013 241.773 138.978 241.799 138.952C241.834 138.917 241.873 138.9 241.916 138.9H247.142C247.186 138.9 247.22 138.917 247.246 138.952C247.281 138.978 247.298 139.013 247.298 139.056V140.317ZM253.312 148C253.216 148 253.156 147.957 253.13 147.87L252.831 146.596C252.822 146.561 252.8 146.544 252.766 146.544H250.335C250.3 146.544 250.278 146.561 250.27 146.596L249.971 147.87C249.945 147.957 249.888 148 249.802 148H248.229C248.116 148 248.073 147.944 248.099 147.831L250.439 139.03C250.465 138.943 250.525 138.9 250.621 138.9H252.506C252.601 138.9 252.662 138.943 252.688 139.03L255.028 147.831L255.041 147.883C255.041 147.961 254.993 148 254.898 148H253.312ZM250.621 145.049C250.612 145.075 250.616 145.097 250.634 145.114C250.651 145.123 250.668 145.127 250.686 145.127H252.402C252.419 145.127 252.436 145.123 252.454 145.114C252.471 145.097 252.475 145.075 252.467 145.049L251.57 141.279C251.561 141.244 251.548 141.227 251.531 141.227C251.513 141.227 251.5 141.244 251.492 141.279L250.621 145.049ZM260.707 138.9C260.751 138.9 260.785 138.917 260.811 138.952C260.846 138.978 260.863 139.013 260.863 139.056V140.33C260.863 140.373 260.846 140.412 260.811 140.447C260.785 140.473 260.751 140.486 260.707 140.486H258.731C258.688 140.486 258.666 140.508 258.666 140.551V147.844C258.666 147.887 258.649 147.926 258.614 147.961C258.588 147.987 258.554 148 258.51 148H256.989C256.946 148 256.907 147.987 256.872 147.961C256.846 147.926 256.833 147.887 256.833 147.844V140.551C256.833 140.508 256.812 140.486 256.768 140.486H254.857C254.814 140.486 254.775 140.473 254.74 140.447C254.714 140.412 254.701 140.373 254.701 140.33V139.056C254.701 139.013 254.714 138.978 254.74 138.952C254.775 138.917 254.814 138.9 254.857 138.9H260.707ZM264.587 148.104C263.989 148.104 263.465 148 263.014 147.792C262.563 147.575 262.212 147.276 261.961 146.895C261.718 146.505 261.597 146.059 261.597 145.556V145.218C261.597 145.175 261.61 145.14 261.636 145.114C261.671 145.079 261.71 145.062 261.753 145.062H263.248C263.291 145.062 263.326 145.079 263.352 145.114C263.387 145.14 263.404 145.175 263.404 145.218V145.465C263.404 145.768 263.517 146.024 263.742 146.232C263.967 146.431 264.271 146.531 264.652 146.531C264.99 146.531 265.246 146.444 265.419 146.271C265.601 146.098 265.692 145.877 265.692 145.608C265.692 145.409 265.636 145.24 265.523 145.101C265.41 144.954 265.25 144.819 265.042 144.698C264.843 144.568 264.531 144.395 264.106 144.178C263.586 143.918 263.161 143.675 262.832 143.45C262.503 143.225 262.221 142.934 261.987 142.579C261.753 142.224 261.636 141.795 261.636 141.292C261.636 140.789 261.753 140.352 261.987 139.979C262.23 139.598 262.568 139.307 263.001 139.108C263.434 138.9 263.928 138.796 264.483 138.796C265.064 138.796 265.579 138.909 266.03 139.134C266.481 139.351 266.832 139.658 267.083 140.057C267.334 140.456 267.46 140.915 267.46 141.435V141.695C267.46 141.738 267.443 141.777 267.408 141.812C267.382 141.838 267.347 141.851 267.304 141.851H265.809C265.766 141.851 265.727 141.838 265.692 141.812C265.666 141.777 265.653 141.738 265.653 141.695V141.461C265.653 141.149 265.545 140.889 265.328 140.681C265.111 140.473 264.817 140.369 264.444 140.369C264.132 140.369 263.885 140.451 263.703 140.616C263.53 140.772 263.443 140.993 263.443 141.279C263.443 141.478 263.495 141.652 263.599 141.799C263.703 141.946 263.863 142.089 264.08 142.228C264.297 142.358 264.626 142.531 265.068 142.748L265.341 142.904C265.844 143.181 266.234 143.424 266.511 143.632C266.797 143.831 267.035 144.087 267.226 144.399C267.417 144.711 267.512 145.088 267.512 145.53C267.512 146.319 267.243 146.947 266.706 147.415C266.177 147.874 265.471 148.104 264.587 148.104Z" fill="#B1B4C5"/>
<rect width="50" height="4" rx="2" transform="matrix(-1 0 0 1 178.174 49)" fill="#B1B4C5"/>
<path fill-rule="evenodd" clip-rule="evenodd" d="M138.819 41.0094C138.094 40.2875 136.92 40.2934 136.203 41.0224L127.613 49.7505C126.901 50.4734 126.907 51.635 127.626 52.3507C128.35 53.0726 129.524 53.0667 130.241 52.3377L138.832 43.6096C139.543 42.8867 139.537 41.7251 138.819 41.0094Z" fill="#B1B4C5"/>
<path fill-rule="evenodd" clip-rule="evenodd" d="M138.819 60.9907C139.537 60.2749 139.543 59.1133 138.832 58.3905L130.242 49.6623C129.524 48.9333 128.351 48.9275 127.626 49.6494C126.907 50.3651 126.902 51.5267 127.613 52.2495L136.203 60.9777C136.921 61.7067 138.094 61.7125 138.819 60.9907Z" fill="#B1B4C5"/>
<rect width="50" height="4" rx="2" transform="matrix(0.573576 0.819152 0.819152 -0.573576 77.6226 117.849)" fill="#B1B4C5"/>
<path fill-rule="evenodd" clip-rule="evenodd" d="M93.6499 154.67C93.4743 155.678 94.1523 156.636 95.161 156.806L107.238 158.836C108.238 159.004 109.186 158.333 109.36 157.334C109.536 156.326 108.858 155.368 107.849 155.199L95.7725 153.168C94.7723 153 93.8241 153.671 93.6499 154.67Z" fill="#B1B4C5"/>
<path fill-rule="evenodd" clip-rule="evenodd" d="M110.018 143.209C109.019 143.031 108.064 143.693 107.88 144.69L105.658 156.733C105.472 157.739 106.14 158.704 107.147 158.883C108.146 159.061 109.101 158.4 109.285 157.402L111.507 145.36C111.693 144.354 111.025 143.389 110.018 143.209Z" fill="#B1B4C5"/>
<rect x="192.623" y="158.151" width="50" height="4" rx="2" transform="rotate(-55 192.623 158.151)" fill="#B1B4C5"/>
<path fill-rule="evenodd" clip-rule="evenodd" d="M208.65 121.33C208.474 120.322 209.152 119.364 210.161 119.194L222.238 117.164C223.238 116.996 224.186 117.667 224.36 118.666C224.536 119.674 223.858 120.632 222.849 120.801L210.772 122.832C209.772 123 208.824 122.329 208.65 121.33Z" fill="#B1B4C5"/>
<path fill-rule="evenodd" clip-rule="evenodd" d="M225.018 132.791C224.019 132.969 223.064 132.307 222.88 131.31L220.658 119.267C220.472 118.261 221.14 117.296 222.147 117.117C223.146 116.939 224.101 117.6 224.285 118.598L226.507 130.64C226.693 131.646 226.025 132.611 225.018 132.791Z" fill="#B1B4C5"/>
<defs>
<linearGradient id="paint0_linear_86148_525" x1="0" y1="0" x2="0" y2="104.77" gradientUnits="userSpaceOnUse">
<stop stop-color="white" stop-opacity="0.0966455"/>
<stop offset="1" stop-color="white" stop-opacity="0.01"/>
</linearGradient>
<linearGradient id="paint1_linear_86148_525" x1="196" y1="0" x2="196" y2="104.77" gradientUnits="userSpaceOnUse">
<stop stop-color="white" stop-opacity="0.0966455"/>
<stop offset="1" stop-color="white" stop-opacity="0.01"/>
</linearGradient>
<linearGradient id="paint2_linear_86148_525" x1="98" y1="160" x2="98" y2="264.77" gradientUnits="userSpaceOnUse">
<stop stop-color="white" stop-opacity="0.0966455"/>
<stop offset="1" stop-color="white" stop-opacity="0.01"/>
</linearGradient>
</defs>
</svg>
