<svg width="151" height="154" viewBox="0 0 151 154" fill="none" xmlns="http://www.w3.org/2000/svg">
<g filter="url(#filter0_d_86163_1664)">
<ellipse cx="75.5" cy="74" rx="72.5" ry="74" fill="#5F37A8"/>
</g>
<ellipse cx="75.5" cy="70.7192" rx="72.5" ry="70.7192" fill="#834EE3"/>
<ellipse cx="75.5" cy="70.7192" rx="72.5" ry="70.7192" fill="url(#paint0_linear_86163_1664)"/>
<ellipse cx="75.5001" cy="72.1773" rx="55.6566" ry="55.4089" fill="#B1B4C5"/>
<ellipse cx="75.5001" cy="75.0936" rx="55.6566" ry="52.4926" fill="url(#paint1_linear_86163_1664)"/>
<path d="M93.4838 47.0963C96.7124 45.0966 99.8071 44.663 102.198 45.8766C107.556 48.5969 106.781 58.7216 104.588 63.109C103.35 65.5854 101.156 67.3953 98.06 68.4957C96.861 72.2948 95.1752 75.5592 93.0248 78.2594C94.4339 79.4387 96.2278 80.0972 98.1049 80.0973H98.1948L101.216 77.1149C101.977 76.3643 103.21 76.364 103.97 77.1149C104.73 77.8656 104.73 79.0831 103.97 79.8336L103.703 80.0973H104.31C105.385 80.0973 106.258 80.9577 106.258 82.0192C106.258 83.0807 105.386 83.942 104.311 83.942H103.703L103.97 84.2057C104.731 84.9564 104.731 86.1739 103.97 86.9244C103.59 87.2999 103.091 87.4879 102.593 87.4879C102.095 87.4879 101.597 87.2999 101.216 86.9244L98.1948 83.942H98.1049C95.2403 83.9419 92.5064 82.9158 90.3803 81.0836C89.9645 81.4606 89.5372 81.8236 89.0961 82.1686C85.364 85.0873 80.8013 86.7841 75.4682 87.2487C76.1399 89.2731 76.2727 91.4642 75.8129 93.6022L75.7934 93.691L78.1186 97.3522C78.7039 98.2736 78.4392 99.5011 77.5287 100.093C77.2008 100.306 76.8337 100.408 76.4711 100.408C75.8264 100.408 75.1952 100.086 74.8207 99.4967L74.6147 99.1725L74.4848 99.778C74.2851 100.706 73.4734 101.339 72.5717 101.339C72.4336 101.339 72.2932 101.324 72.1528 101.294C71.0951 101.061 70.4247 100.005 70.6547 98.9342L70.7846 98.3287L70.4643 98.5377C69.5537 99.1294 68.3414 98.8625 67.7563 97.941C67.171 97.0196 67.4346 95.7921 68.3452 95.1998L71.9633 92.8473L71.9819 92.7584C72.3786 90.9132 72.1145 89.01 71.2661 87.3629C69.723 87.3194 68.1249 87.1882 66.4731 86.9645C61.7893 86.3302 59.1326 88.3956 58.4291 89.0446C52.9196 94.1292 51.8459 103.11 51.8325 103.227C51.7399 104.05 51.1468 104.729 50.3461 104.927C50.1892 104.966 50.0304 104.985 49.8735 104.985C49.2308 104.985 48.616 104.668 48.2436 104.118C48.1554 103.987 46.0783 100.883 45.1674 96.5026C43.9306 90.5535 45.4057 85.0962 49.433 80.7203C51.7688 78.1824 54.7522 76.253 58.059 75.1422C58.1021 75.1277 58.1457 75.1144 58.1889 75.1002C58.0473 75.1361 57.9059 75.1723 57.7651 75.2106C56.7229 74.7252 55.5733 74.4636 54.3901 74.4635H54.2993L51.267 77.4469C50.8854 77.8221 50.3851 78.0094 49.8852 78.0094C49.3852 78.0094 48.885 77.8222 48.5034 77.4469C47.7403 76.6962 47.7405 75.4788 48.5034 74.7282L48.7719 74.4635H48.1616C47.0823 74.4635 46.2075 73.6033 46.2075 72.5416C46.2075 71.48 47.0823 70.6198 48.1616 70.6198H48.7719L48.5034 70.3551C47.7404 69.6043 47.7403 68.3869 48.5034 67.6364C49.2665 66.886 50.5039 66.8861 51.267 67.6364L54.2993 70.6188H54.3891C57.5861 70.6188 60.622 71.8874 62.8364 74.1227C64.6017 73.9462 66.4024 73.9756 68.186 74.2174C73.132 74.8872 77.1768 74.1967 80.2993 72.1627C78.5612 70.0193 77.5893 67.3047 77.5893 64.4635V64.3727L74.6 61.2867C73.8476 60.5101 73.8476 59.2508 74.6 58.4742C75.3524 57.698 76.5724 57.698 77.3246 58.4742L77.5893 58.7477V58.1266C77.5893 57.0283 78.452 56.1373 79.5161 56.1373C80.5801 56.1374 81.4428 57.0283 81.4428 58.1266V58.7477L81.7075 58.4742C82.4599 57.698 83.6798 57.6979 84.4321 58.4742C85.5784 59.6575 84.7515 60.9568 84.4321 61.2867C84.1125 61.6166 81.4428 64.3727 81.4428 64.3727V64.4645C81.4429 66.3421 82.0785 68.1361 83.2153 69.5612C84.6257 67.874 85.736 65.7539 86.5395 63.2018C85.9517 61.5773 85.0376 57.7287 87.3666 53.3649C88.5863 51.0796 90.9306 48.6779 93.4838 47.0963Z" fill="#3B4262"/>
<defs>
<filter id="filter0_d_86163_1664" x="0" y="0" width="151" height="154" filterUnits="userSpaceOnUse" color-interpolation-filters="sRGB">
<feFlood flood-opacity="0" result="BackgroundImageFix"/>
<feColorMatrix in="SourceAlpha" type="matrix" values="0 0 0 0 0 0 0 0 0 0 0 0 0 0 0 0 0 0 127 0" result="hardAlpha"/>
<feOffset dy="3"/>
<feGaussianBlur stdDeviation="1.5"/>
<feColorMatrix type="matrix" values="0 0 0 0 0 0 0 0 0 0 0 0 0 0 0 0 0 0 0.196706 0"/>
<feBlend mode="normal" in2="BackgroundImageFix" result="effect1_dropShadow_86163_1664"/>
<feBlend mode="normal" in="SourceGraphic" in2="effect1_dropShadow_86163_1664" result="shape"/>
</filter>
<linearGradient id="paint0_linear_86163_1664" x1="3" y1="0" x2="3" y2="141.438" gradientUnits="userSpaceOnUse">
<stop stop-color="white" stop-opacity="0.0966455"/>
<stop offset="1" stop-color="white" stop-opacity="0.01"/>
</linearGradient>
<linearGradient id="paint1_linear_86163_1664" x1="130.234" y1="127.586" x2="130.234" y2="24.3411" gradientUnits="userSpaceOnUse">
<stop stop-color="#F3F3F3"/>
<stop offset="1" stop-color="#DADADA"/>
</linearGradient>
</defs>
</svg>
