<svg width="151" height="154" viewBox="0 0 151 154" fill="none" xmlns="http://www.w3.org/2000/svg">
<g filter="url(#filter0_d_86163_1633)">
<ellipse cx="75.5" cy="74" rx="72.5" ry="74" fill="#2D8DAB"/>
</g>
<ellipse cx="75.5" cy="70.7192" rx="72.5" ry="70.7192" fill="#3FB7CD"/>
<ellipse cx="75.5" cy="70.7192" rx="72.5" ry="70.7192" fill="url(#paint0_linear_86163_1633)"/>
<ellipse cx="75.5001" cy="72.1774" rx="55.6566" ry="55.4089" fill="#B1B4C5"/>
<ellipse cx="75.5001" cy="75.0936" rx="55.6566" ry="52.4926" fill="url(#paint1_linear_86163_1633)"/>
<path d="M100.042 76.4216L99.1786 75.5624C97.1166 73.5084 93.7456 73.061 91.2281 74.5015L85.8523 77.5606L86.9728 53.0592C86.9728 51.0052 85.2945 49.3332 83.2299 49.3332C82.7841 49.3332 82.355 49.4116 81.9569 49.5552L82.0905 48.2403C82.0906 46.1626 80.386 44.4729 78.2929 44.4729C76.3572 44.4729 74.7337 45.9183 74.5287 47.7717L71.0791 68.521C71.0338 68.8034 70.5427 68.775 70.4903 68.597L66.416 51.9617C65.9702 50.4144 64.5303 49.3334 62.914 49.3334C61.796 49.3334 60.7566 49.8341 60.0605 50.7075C59.3667 51.5809 59.1141 52.7046 59.3715 53.788L60.163 57.1379C59.7124 57.1011 59.2595 57.1616 58.828 57.3063C57.2213 57.8391 56.2414 59.4363 56.5013 61.1237L58.8995 74.8505C58.8995 80.2663 59.8532 84.2736 60.6541 86.68C61.1094 88.053 61.3407 89.4971 61.3407 90.9721C61.3407 92.256 61.1618 93.534 60.8067 94.7681L58.9471 101.249C58.8422 101.616 58.9161 102.01 59.145 102.315C59.3762 102.619 59.7362 102.798 60.12 102.798H82.0905C82.4839 102.798 82.8509 102.611 83.0798 102.294C83.311 101.977 83.3731 101.569 83.249 101.198C83.2371 101.166 82.2168 98.0289 83.1823 93.7606C84.4077 92.7709 88.6963 89.2989 90.2364 87.8987C92.7825 85.5836 99.7578 78.4306 100.054 78.1269C100.518 77.6509 100.514 76.8915 100.042 76.4216Z" fill="#3B4262"/>
<defs>
<filter id="filter0_d_86163_1633" x="0" y="0" width="151" height="154" filterUnits="userSpaceOnUse" color-interpolation-filters="sRGB">
<feFlood flood-opacity="0" result="BackgroundImageFix"/>
<feColorMatrix in="SourceAlpha" type="matrix" values="0 0 0 0 0 0 0 0 0 0 0 0 0 0 0 0 0 0 127 0" result="hardAlpha"/>
<feOffset dy="3"/>
<feGaussianBlur stdDeviation="1.5"/>
<feColorMatrix type="matrix" values="0 0 0 0 0 0 0 0 0 0 0 0 0 0 0 0 0 0 0.196706 0"/>
<feBlend mode="normal" in2="BackgroundImageFix" result="effect1_dropShadow_86163_1633"/>
<feBlend mode="normal" in="SourceGraphic" in2="effect1_dropShadow_86163_1633" result="shape"/>
</filter>
<linearGradient id="paint0_linear_86163_1633" x1="3" y1="0" x2="3" y2="141.438" gradientUnits="userSpaceOnUse">
<stop stop-color="white" stop-opacity="0.0966455"/>
<stop offset="1" stop-color="white" stop-opacity="0.01"/>
</linearGradient>
<linearGradient id="paint1_linear_86163_1633" x1="130.234" y1="127.586" x2="130.234" y2="24.3412" gradientUnits="userSpaceOnUse">
<stop stop-color="#F3F3F3"/>
<stop offset="1" stop-color="#DADADA"/>
</linearGradient>
</defs>
</svg>
